<svg aria-hidden="true" style="position: absolute; width: 0; height: 0; overflow: hidden;" version="1.1" xmlns="http://www.w3.org/2000/svg" xmlns:xlink="http://www.w3.org/1999/xlink">
<defs>
<symbol id="icon-phone" viewBox="0 0 32 32">
<path d="M22 20c-2 2-2 4-4 4s-4-2-6-4-4-4-4-6 2-2 4-4-4-8-6-8-6 6-6 6c0 4 4.109 12.109 8 16s12 8 16 8c0 0 6-4 6-6s-6-8-8-6z"></path>
</symbol>
<symbol id="icon-logo" viewBox="0 0 32 32">
<path d="M8.111 16c0-2.044 1.657-3.701 3.701-3.701s3.701 1.657 3.701 3.701c0 2.044-1.657 3.701-3.701 3.701s-3.701-1.657-3.701-3.701zM16 0c-8.837 0-16 7.163-16 16s7.163 16 16 16c8.836 0 16-7.163 16-16s-7.163-16-16-16zM11.856 29.978c-4.811-2.799-8.046-8.010-8.046-13.978s3.235-11.178 8.046-13.978c4.813 2.799 8.050 8.009 8.050 13.978s-3.237 11.179-8.050 13.978z"></path>
</symbol>
</defs>
</svg>
